<mxfile host="app.diagrams.net" modified="2024-04-26T03:18:14.577Z" agent="Mozilla/5.0 (X11; Linux x86_64; rv:124.0) Gecko/20100101 Firefox/124.0" etag="szkKGe83ZgSj3fU4PvyM" version="24.3.0" type="device">
  <diagram name="Page-1" id="g6dS3q9Hj-z7d2nMNrN1">
    <mxGraphModel dx="2284" dy="765" grid="1" gridSize="10" guides="1" tooltips="1" connect="1" arrows="1" fold="1" page="1" pageScale="1" pageWidth="850" pageHeight="1100" math="0" shadow="0">
      <root>
        <mxCell id="0" />
        <mxCell id="1" parent="0" />
        <mxCell id="VQB_SgRrG4Z1jtRtXzJK-1" value="&lt;div&gt;Dish&lt;/div&gt;" style="whiteSpace=wrap;html=1;align=center;" vertex="1" parent="1">
          <mxGeometry x="-270" y="470" width="100" height="40" as="geometry" />
        </mxCell>
        <mxCell id="VQB_SgRrG4Z1jtRtXzJK-4" value="Meal" style="whiteSpace=wrap;html=1;align=center;" vertex="1" parent="1">
          <mxGeometry x="-270" y="330" width="100" height="40" as="geometry" />
        </mxCell>
        <mxCell id="VQB_SgRrG4Z1jtRtXzJK-12" value="&lt;div&gt;Ingredient&lt;/div&gt;" style="whiteSpace=wrap;html=1;align=center;" vertex="1" parent="1">
          <mxGeometry x="-270" y="640" width="100" height="40" as="geometry" />
        </mxCell>
        <mxCell id="VQB_SgRrG4Z1jtRtXzJK-19" value="&lt;div&gt;Caloric content&lt;/div&gt;" style="ellipse;whiteSpace=wrap;html=1;align=center;fontStyle=4;" vertex="1" parent="1">
          <mxGeometry x="-540" y="540" width="100" height="40" as="geometry" />
        </mxCell>
        <mxCell id="VQB_SgRrG4Z1jtRtXzJK-20" value="" style="endArrow=none;html=1;rounded=0;exitX=1;exitY=0.5;exitDx=0;exitDy=0;entryX=0;entryY=0.5;entryDx=0;entryDy=0;" edge="1" parent="1" source="VQB_SgRrG4Z1jtRtXzJK-19" target="VQB_SgRrG4Z1jtRtXzJK-12">
          <mxGeometry relative="1" as="geometry">
            <mxPoint x="-440" y="510" as="sourcePoint" />
            <mxPoint x="380.4" y="330" as="targetPoint" />
          </mxGeometry>
        </mxCell>
        <mxCell id="VQB_SgRrG4Z1jtRtXzJK-21" value="M" style="resizable=0;html=1;whiteSpace=wrap;align=left;verticalAlign=bottom;" connectable="0" vertex="1" parent="VQB_SgRrG4Z1jtRtXzJK-20">
          <mxGeometry x="-1" relative="1" as="geometry" />
        </mxCell>
        <mxCell id="VQB_SgRrG4Z1jtRtXzJK-22" value="N" style="resizable=0;html=1;whiteSpace=wrap;align=right;verticalAlign=bottom;" connectable="0" vertex="1" parent="VQB_SgRrG4Z1jtRtXzJK-20">
          <mxGeometry x="1" relative="1" as="geometry" />
        </mxCell>
        <mxCell id="VQB_SgRrG4Z1jtRtXzJK-23" value="" style="endArrow=none;html=1;rounded=0;entryX=0;entryY=0.5;entryDx=0;entryDy=0;exitX=1;exitY=0.5;exitDx=0;exitDy=0;" edge="1" parent="1" source="VQB_SgRrG4Z1jtRtXzJK-19" target="VQB_SgRrG4Z1jtRtXzJK-1">
          <mxGeometry relative="1" as="geometry">
            <mxPoint x="-440" y="510" as="sourcePoint" />
            <mxPoint x="370.4" y="220" as="targetPoint" />
          </mxGeometry>
        </mxCell>
        <mxCell id="VQB_SgRrG4Z1jtRtXzJK-24" value="M" style="resizable=0;html=1;whiteSpace=wrap;align=left;verticalAlign=bottom;" connectable="0" vertex="1" parent="VQB_SgRrG4Z1jtRtXzJK-23">
          <mxGeometry x="-1" relative="1" as="geometry" />
        </mxCell>
        <mxCell id="VQB_SgRrG4Z1jtRtXzJK-25" value="N" style="resizable=0;html=1;whiteSpace=wrap;align=right;verticalAlign=bottom;" connectable="0" vertex="1" parent="VQB_SgRrG4Z1jtRtXzJK-23">
          <mxGeometry x="1" relative="1" as="geometry" />
        </mxCell>
        <mxCell id="VQB_SgRrG4Z1jtRtXzJK-26" value="" style="endArrow=none;html=1;rounded=0;entryX=0;entryY=0.5;entryDx=0;entryDy=0;exitX=0.5;exitY=0;exitDx=0;exitDy=0;" edge="1" parent="1" source="VQB_SgRrG4Z1jtRtXzJK-19" target="VQB_SgRrG4Z1jtRtXzJK-4">
          <mxGeometry relative="1" as="geometry">
            <mxPoint x="120" y="470" as="sourcePoint" />
            <mxPoint x="-49.599999999999994" y="390" as="targetPoint" />
          </mxGeometry>
        </mxCell>
        <mxCell id="VQB_SgRrG4Z1jtRtXzJK-27" value="M" style="resizable=0;html=1;whiteSpace=wrap;align=left;verticalAlign=bottom;" connectable="0" vertex="1" parent="VQB_SgRrG4Z1jtRtXzJK-26">
          <mxGeometry x="-1" relative="1" as="geometry">
            <mxPoint y="-10" as="offset" />
          </mxGeometry>
        </mxCell>
        <mxCell id="VQB_SgRrG4Z1jtRtXzJK-28" value="N" style="resizable=0;html=1;whiteSpace=wrap;align=right;verticalAlign=bottom;" connectable="0" vertex="1" parent="VQB_SgRrG4Z1jtRtXzJK-26">
          <mxGeometry x="1" relative="1" as="geometry" />
        </mxCell>
        <mxCell id="VQB_SgRrG4Z1jtRtXzJK-33" value="Calorie density" style="ellipse;whiteSpace=wrap;html=1;align=center;" vertex="1" parent="1">
          <mxGeometry x="-200" y="740" width="100" height="40" as="geometry" />
        </mxCell>
        <mxCell id="VQB_SgRrG4Z1jtRtXzJK-34" value="Weight" style="ellipse;whiteSpace=wrap;html=1;align=center;" vertex="1" parent="1">
          <mxGeometry x="-340" y="740" width="100" height="40" as="geometry" />
        </mxCell>
        <mxCell id="VQB_SgRrG4Z1jtRtXzJK-35" style="edgeStyle=orthogonalEdgeStyle;rounded=0;orthogonalLoop=1;jettySize=auto;html=1;exitX=0.5;exitY=1;exitDx=0;exitDy=0;" edge="1" parent="1" source="VQB_SgRrG4Z1jtRtXzJK-12" target="VQB_SgRrG4Z1jtRtXzJK-12">
          <mxGeometry relative="1" as="geometry" />
        </mxCell>
        <mxCell id="VQB_SgRrG4Z1jtRtXzJK-36" value="Person" style="whiteSpace=wrap;html=1;align=center;" vertex="1" parent="1">
          <mxGeometry x="-740" y="270" width="100" height="40" as="geometry" />
        </mxCell>
        <mxCell id="VQB_SgRrG4Z1jtRtXzJK-39" value="" style="endArrow=none;html=1;rounded=0;entryX=0;entryY=0.5;entryDx=0;entryDy=0;exitX=1;exitY=0.5;exitDx=0;exitDy=0;edgeStyle=orthogonalEdgeStyle;" edge="1" parent="1" source="VQB_SgRrG4Z1jtRtXzJK-41" target="VQB_SgRrG4Z1jtRtXzJK-19">
          <mxGeometry relative="1" as="geometry">
            <mxPoint x="-250.2" y="252.5" as="sourcePoint" />
            <mxPoint x="50.2000000000001" y="427.5" as="targetPoint" />
            <Array as="points">
              <mxPoint x="-400" y="290" />
              <mxPoint x="-400" y="370" />
              <mxPoint x="-540" y="370" />
            </Array>
          </mxGeometry>
        </mxCell>
        <mxCell id="VQB_SgRrG4Z1jtRtXzJK-40" value="N" style="resizable=0;html=1;whiteSpace=wrap;align=right;verticalAlign=bottom;" connectable="0" vertex="1" parent="VQB_SgRrG4Z1jtRtXzJK-39">
          <mxGeometry x="1" relative="1" as="geometry" />
        </mxCell>
        <mxCell id="VQB_SgRrG4Z1jtRtXzJK-41" value="Consumes" style="shape=rhombus;perimeter=rhombusPerimeter;whiteSpace=wrap;html=1;align=center;" vertex="1" parent="1">
          <mxGeometry x="-560" y="260" width="120" height="60" as="geometry" />
        </mxCell>
        <mxCell id="VQB_SgRrG4Z1jtRtXzJK-46" value="" style="endArrow=none;html=1;rounded=0;exitX=0;exitY=0.5;exitDx=0;exitDy=0;edgeStyle=orthogonalEdgeStyle;entryX=1;entryY=0.5;entryDx=0;entryDy=0;" edge="1" parent="1" source="VQB_SgRrG4Z1jtRtXzJK-4" target="VQB_SgRrG4Z1jtRtXzJK-41">
          <mxGeometry relative="1" as="geometry">
            <mxPoint x="380" y="320" as="sourcePoint" />
            <mxPoint x="-190" y="270" as="targetPoint" />
            <Array as="points">
              <mxPoint x="-340" y="350" />
              <mxPoint x="-340" y="290" />
            </Array>
          </mxGeometry>
        </mxCell>
        <mxCell id="VQB_SgRrG4Z1jtRtXzJK-47" value="N" style="resizable=0;html=1;whiteSpace=wrap;align=right;verticalAlign=bottom;" connectable="0" vertex="1" parent="VQB_SgRrG4Z1jtRtXzJK-46">
          <mxGeometry x="1" relative="1" as="geometry" />
        </mxCell>
        <mxCell id="VQB_SgRrG4Z1jtRtXzJK-49" value="" style="endArrow=none;html=1;rounded=0;exitX=1;exitY=0.5;exitDx=0;exitDy=0;entryX=0;entryY=0.5;entryDx=0;entryDy=0;" edge="1" parent="1" source="VQB_SgRrG4Z1jtRtXzJK-36" target="VQB_SgRrG4Z1jtRtXzJK-41">
          <mxGeometry relative="1" as="geometry">
            <mxPoint x="-260" y="50" as="sourcePoint" />
            <mxPoint x="-100" y="50" as="targetPoint" />
          </mxGeometry>
        </mxCell>
        <mxCell id="VQB_SgRrG4Z1jtRtXzJK-50" value="&lt;div&gt;Is made of&lt;/div&gt;" style="shape=rhombus;perimeter=rhombusPerimeter;whiteSpace=wrap;html=1;align=center;" vertex="1" parent="1">
          <mxGeometry x="-280" y="400" width="120" height="60" as="geometry" />
        </mxCell>
        <mxCell id="VQB_SgRrG4Z1jtRtXzJK-51" value="Is made up of" style="shape=rhombus;perimeter=rhombusPerimeter;whiteSpace=wrap;html=1;align=center;" vertex="1" parent="1">
          <mxGeometry x="-280" y="560" width="120" height="60" as="geometry" />
        </mxCell>
        <mxCell id="VQB_SgRrG4Z1jtRtXzJK-53" value="" style="endArrow=none;html=1;rounded=0;exitX=0.5;exitY=1;exitDx=0;exitDy=0;entryX=0.5;entryY=0;entryDx=0;entryDy=0;" edge="1" parent="1" source="VQB_SgRrG4Z1jtRtXzJK-4" target="VQB_SgRrG4Z1jtRtXzJK-50">
          <mxGeometry relative="1" as="geometry">
            <mxPoint x="100" y="370" as="sourcePoint" />
            <mxPoint x="260" y="370" as="targetPoint" />
          </mxGeometry>
        </mxCell>
        <mxCell id="VQB_SgRrG4Z1jtRtXzJK-54" value="" style="endArrow=none;html=1;rounded=0;exitX=0.5;exitY=1;exitDx=0;exitDy=0;entryX=0.5;entryY=0;entryDx=0;entryDy=0;" edge="1" parent="1" source="VQB_SgRrG4Z1jtRtXzJK-1" target="VQB_SgRrG4Z1jtRtXzJK-51">
          <mxGeometry relative="1" as="geometry">
            <mxPoint x="100" y="320" as="sourcePoint" />
            <mxPoint x="260" y="320" as="targetPoint" />
          </mxGeometry>
        </mxCell>
        <mxCell id="VQB_SgRrG4Z1jtRtXzJK-55" value="" style="endArrow=none;html=1;rounded=0;exitX=0.5;exitY=0;exitDx=0;exitDy=0;entryX=0.5;entryY=1;entryDx=0;entryDy=0;" edge="1" parent="1" source="VQB_SgRrG4Z1jtRtXzJK-12" target="VQB_SgRrG4Z1jtRtXzJK-51">
          <mxGeometry relative="1" as="geometry">
            <mxPoint x="100" y="320" as="sourcePoint" />
            <mxPoint x="350" y="120" as="targetPoint" />
          </mxGeometry>
        </mxCell>
        <mxCell id="VQB_SgRrG4Z1jtRtXzJK-56" value="N" style="resizable=0;html=1;whiteSpace=wrap;align=right;verticalAlign=bottom;" connectable="0" vertex="1" parent="VQB_SgRrG4Z1jtRtXzJK-55">
          <mxGeometry x="1" relative="1" as="geometry" />
        </mxCell>
        <mxCell id="VQB_SgRrG4Z1jtRtXzJK-57" value="" style="endArrow=none;html=1;rounded=0;exitX=0.5;exitY=0;exitDx=0;exitDy=0;entryX=0.5;entryY=1;entryDx=0;entryDy=0;" edge="1" parent="1" source="VQB_SgRrG4Z1jtRtXzJK-1" target="VQB_SgRrG4Z1jtRtXzJK-50">
          <mxGeometry relative="1" as="geometry">
            <mxPoint x="-20" y="290" as="sourcePoint" />
            <mxPoint x="50" y="150" as="targetPoint" />
          </mxGeometry>
        </mxCell>
        <mxCell id="VQB_SgRrG4Z1jtRtXzJK-58" value="N" style="resizable=0;html=1;whiteSpace=wrap;align=right;verticalAlign=bottom;" connectable="0" vertex="1" parent="VQB_SgRrG4Z1jtRtXzJK-57">
          <mxGeometry x="1" relative="1" as="geometry" />
        </mxCell>
        <mxCell id="VQB_SgRrG4Z1jtRtXzJK-72" style="edgeStyle=orthogonalEdgeStyle;rounded=0;orthogonalLoop=1;jettySize=auto;html=1;exitX=0;exitY=0.5;exitDx=0;exitDy=0;entryX=0.5;entryY=1;entryDx=0;entryDy=0;" edge="1" parent="1" source="VQB_SgRrG4Z1jtRtXzJK-65" target="VQB_SgRrG4Z1jtRtXzJK-19">
          <mxGeometry relative="1" as="geometry">
            <mxPoint x="-490" y="580" as="targetPoint" />
          </mxGeometry>
        </mxCell>
        <mxCell id="VQB_SgRrG4Z1jtRtXzJK-65" value="Determine" style="shape=rhombus;perimeter=rhombusPerimeter;whiteSpace=wrap;html=1;align=center;" vertex="1" parent="1">
          <mxGeometry x="-280" y="800" width="120" height="60" as="geometry" />
        </mxCell>
        <mxCell id="VQB_SgRrG4Z1jtRtXzJK-66" value="" style="endArrow=none;html=1;rounded=0;exitX=0.5;exitY=1;exitDx=0;exitDy=0;entryX=0.5;entryY=0;entryDx=0;entryDy=0;" edge="1" parent="1" source="VQB_SgRrG4Z1jtRtXzJK-12" target="VQB_SgRrG4Z1jtRtXzJK-34">
          <mxGeometry relative="1" as="geometry">
            <mxPoint x="-110" y="745" as="sourcePoint" />
            <mxPoint x="-80" y="740" as="targetPoint" />
          </mxGeometry>
        </mxCell>
        <mxCell id="VQB_SgRrG4Z1jtRtXzJK-67" value="1" style="resizable=0;html=1;whiteSpace=wrap;align=right;verticalAlign=bottom;" connectable="0" vertex="1" parent="VQB_SgRrG4Z1jtRtXzJK-66">
          <mxGeometry x="1" relative="1" as="geometry" />
        </mxCell>
        <mxCell id="VQB_SgRrG4Z1jtRtXzJK-68" value="" style="endArrow=none;html=1;rounded=0;entryX=0.5;entryY=0;entryDx=0;entryDy=0;exitX=0.5;exitY=1;exitDx=0;exitDy=0;" edge="1" parent="1" source="VQB_SgRrG4Z1jtRtXzJK-12">
          <mxGeometry relative="1" as="geometry">
            <mxPoint x="-50" y="745" as="sourcePoint" />
            <mxPoint x="-150" y="740" as="targetPoint" />
          </mxGeometry>
        </mxCell>
        <mxCell id="VQB_SgRrG4Z1jtRtXzJK-69" value="1" style="resizable=0;html=1;whiteSpace=wrap;align=right;verticalAlign=bottom;" connectable="0" vertex="1" parent="VQB_SgRrG4Z1jtRtXzJK-68">
          <mxGeometry x="1" relative="1" as="geometry" />
        </mxCell>
        <mxCell id="VQB_SgRrG4Z1jtRtXzJK-70" value="" style="endArrow=none;html=1;rounded=0;exitX=0.5;exitY=1;exitDx=0;exitDy=0;entryX=0.5;entryY=0;entryDx=0;entryDy=0;" edge="1" parent="1" source="VQB_SgRrG4Z1jtRtXzJK-34" target="VQB_SgRrG4Z1jtRtXzJK-65">
          <mxGeometry relative="1" as="geometry">
            <mxPoint x="-280" y="890" as="sourcePoint" />
            <mxPoint x="-120" y="890" as="targetPoint" />
          </mxGeometry>
        </mxCell>
        <mxCell id="VQB_SgRrG4Z1jtRtXzJK-71" value="" style="endArrow=none;html=1;rounded=0;entryX=0.5;entryY=0;entryDx=0;entryDy=0;exitX=0.5;exitY=1;exitDx=0;exitDy=0;" edge="1" parent="1" target="VQB_SgRrG4Z1jtRtXzJK-65">
          <mxGeometry relative="1" as="geometry">
            <mxPoint x="-150" y="780" as="sourcePoint" />
            <mxPoint x="290" y="889" as="targetPoint" />
          </mxGeometry>
        </mxCell>
        <mxCell id="VQB_SgRrG4Z1jtRtXzJK-74" value="&lt;div&gt;Mealtime&lt;/div&gt;" style="whiteSpace=wrap;html=1;align=center;" vertex="1" parent="1">
          <mxGeometry x="-569.96" y="160" width="100" height="40" as="geometry" />
        </mxCell>
        <mxCell id="VQB_SgRrG4Z1jtRtXzJK-78" value="Eats at" style="shape=rhombus;perimeter=rhombusPerimeter;whiteSpace=wrap;html=1;align=center;" vertex="1" parent="1">
          <mxGeometry x="-750" y="150" width="120" height="60" as="geometry" />
        </mxCell>
        <mxCell id="VQB_SgRrG4Z1jtRtXzJK-79" value="" style="endArrow=none;html=1;rounded=0;exitX=0;exitY=0.5;exitDx=0;exitDy=0;entryX=1;entryY=0.5;entryDx=0;entryDy=0;" edge="1" parent="1" source="VQB_SgRrG4Z1jtRtXzJK-74" target="VQB_SgRrG4Z1jtRtXzJK-78">
          <mxGeometry relative="1" as="geometry">
            <mxPoint x="-220" y="320" as="sourcePoint" />
            <mxPoint x="-60" y="320" as="targetPoint" />
          </mxGeometry>
        </mxCell>
        <mxCell id="VQB_SgRrG4Z1jtRtXzJK-80" value="N" style="resizable=0;html=1;whiteSpace=wrap;align=right;verticalAlign=bottom;" connectable="0" vertex="1" parent="VQB_SgRrG4Z1jtRtXzJK-79">
          <mxGeometry x="1" relative="1" as="geometry" />
        </mxCell>
        <mxCell id="VQB_SgRrG4Z1jtRtXzJK-81" value="" style="endArrow=none;html=1;rounded=0;exitX=0.5;exitY=0;exitDx=0;exitDy=0;entryX=0.5;entryY=1;entryDx=0;entryDy=0;" edge="1" parent="1" source="VQB_SgRrG4Z1jtRtXzJK-36" target="VQB_SgRrG4Z1jtRtXzJK-78">
          <mxGeometry relative="1" as="geometry">
            <mxPoint x="-550" y="230" as="sourcePoint" />
            <mxPoint x="-390" y="230" as="targetPoint" />
          </mxGeometry>
        </mxCell>
        <mxCell id="VQB_SgRrG4Z1jtRtXzJK-82" value="Includes" style="shape=rhombus;perimeter=rhombusPerimeter;whiteSpace=wrap;html=1;align=center;" vertex="1" parent="1">
          <mxGeometry x="-579.96" y="70" width="120" height="60" as="geometry" />
        </mxCell>
        <mxCell id="VQB_SgRrG4Z1jtRtXzJK-83" value="Time" style="ellipse;whiteSpace=wrap;html=1;align=center;" vertex="1" parent="1">
          <mxGeometry x="-690" y="20" width="100" height="40" as="geometry" />
        </mxCell>
        <mxCell id="VQB_SgRrG4Z1jtRtXzJK-84" value="Date" style="ellipse;whiteSpace=wrap;html=1;align=center;" vertex="1" parent="1">
          <mxGeometry x="-449.96000000000004" y="20" width="100" height="40" as="geometry" />
        </mxCell>
        <mxCell id="VQB_SgRrG4Z1jtRtXzJK-86" value="" style="endArrow=none;html=1;rounded=0;exitX=0.5;exitY=1;exitDx=0;exitDy=0;entryX=0.5;entryY=0;entryDx=0;entryDy=0;" edge="1" parent="1" source="VQB_SgRrG4Z1jtRtXzJK-82" target="VQB_SgRrG4Z1jtRtXzJK-74">
          <mxGeometry relative="1" as="geometry">
            <mxPoint x="-99.96" y="360" as="sourcePoint" />
            <mxPoint x="-449.96" y="150" as="targetPoint" />
          </mxGeometry>
        </mxCell>
        <mxCell id="VQB_SgRrG4Z1jtRtXzJK-87" value="1" style="resizable=0;html=1;whiteSpace=wrap;align=right;verticalAlign=bottom;" connectable="0" vertex="1" parent="VQB_SgRrG4Z1jtRtXzJK-86">
          <mxGeometry x="1" relative="1" as="geometry" />
        </mxCell>
        <mxCell id="VQB_SgRrG4Z1jtRtXzJK-88" value="" style="endArrow=none;html=1;rounded=0;exitX=0.5;exitY=1;exitDx=0;exitDy=0;entryX=0;entryY=0.5;entryDx=0;entryDy=0;" edge="1" parent="1" source="VQB_SgRrG4Z1jtRtXzJK-83" target="VQB_SgRrG4Z1jtRtXzJK-82">
          <mxGeometry relative="1" as="geometry">
            <mxPoint x="10" y="340" as="sourcePoint" />
            <mxPoint x="170" y="340" as="targetPoint" />
          </mxGeometry>
        </mxCell>
        <mxCell id="VQB_SgRrG4Z1jtRtXzJK-89" value="1" style="resizable=0;html=1;whiteSpace=wrap;align=right;verticalAlign=bottom;" connectable="0" vertex="1" parent="VQB_SgRrG4Z1jtRtXzJK-88">
          <mxGeometry x="1" relative="1" as="geometry" />
        </mxCell>
        <mxCell id="VQB_SgRrG4Z1jtRtXzJK-90" value="" style="endArrow=none;html=1;rounded=0;exitX=0.5;exitY=1;exitDx=0;exitDy=0;entryX=1;entryY=0.5;entryDx=0;entryDy=0;" edge="1" parent="1" source="VQB_SgRrG4Z1jtRtXzJK-84" target="VQB_SgRrG4Z1jtRtXzJK-82">
          <mxGeometry relative="1" as="geometry">
            <mxPoint x="10" y="340" as="sourcePoint" />
            <mxPoint x="170" y="340" as="targetPoint" />
          </mxGeometry>
        </mxCell>
        <mxCell id="VQB_SgRrG4Z1jtRtXzJK-91" value="1" style="resizable=0;html=1;whiteSpace=wrap;align=right;verticalAlign=bottom;" connectable="0" vertex="1" parent="VQB_SgRrG4Z1jtRtXzJK-90">
          <mxGeometry x="1" relative="1" as="geometry" />
        </mxCell>
        <mxCell id="VQB_SgRrG4Z1jtRtXzJK-92" value="" style="endArrow=none;html=1;rounded=0;entryX=1;entryY=0.5;entryDx=0;entryDy=0;exitX=0.5;exitY=0;exitDx=0;exitDy=0;edgeStyle=orthogonalEdgeStyle;" edge="1" parent="1" source="VQB_SgRrG4Z1jtRtXzJK-4" target="VQB_SgRrG4Z1jtRtXzJK-82">
          <mxGeometry relative="1" as="geometry">
            <mxPoint x="-320" y="140" as="sourcePoint" />
            <mxPoint x="-100" y="170" as="targetPoint" />
          </mxGeometry>
        </mxCell>
        <mxCell id="VQB_SgRrG4Z1jtRtXzJK-93" value="N" style="resizable=0;html=1;whiteSpace=wrap;align=right;verticalAlign=bottom;" connectable="0" vertex="1" parent="VQB_SgRrG4Z1jtRtXzJK-92">
          <mxGeometry x="1" relative="1" as="geometry" />
        </mxCell>
        <mxCell id="VQB_SgRrG4Z1jtRtXzJK-99" value="Favorite foods" style="ellipse;whiteSpace=wrap;html=1;align=center;" vertex="1" parent="1">
          <mxGeometry x="-740" y="410" width="100" height="40" as="geometry" />
        </mxCell>
        <mxCell id="VQB_SgRrG4Z1jtRtXzJK-100" value="Calorie goals" style="ellipse;whiteSpace=wrap;html=1;align=center;" vertex="1" parent="1">
          <mxGeometry x="-840" y="350" width="100" height="40" as="geometry" />
        </mxCell>
        <mxCell id="VQB_SgRrG4Z1jtRtXzJK-101" value="" style="endArrow=none;html=1;rounded=0;dashed=1;dashPattern=1 2;exitX=0.5;exitY=1;exitDx=0;exitDy=0;entryX=0.5;entryY=0;entryDx=0;entryDy=0;" edge="1" parent="1" source="VQB_SgRrG4Z1jtRtXzJK-36" target="VQB_SgRrG4Z1jtRtXzJK-100">
          <mxGeometry relative="1" as="geometry">
            <mxPoint x="-569.96" y="400" as="sourcePoint" />
            <mxPoint x="-409.96" y="400" as="targetPoint" />
          </mxGeometry>
        </mxCell>
        <mxCell id="VQB_SgRrG4Z1jtRtXzJK-102" value="N" style="resizable=0;html=1;whiteSpace=wrap;align=right;verticalAlign=bottom;" connectable="0" vertex="1" parent="VQB_SgRrG4Z1jtRtXzJK-101">
          <mxGeometry x="1" relative="1" as="geometry" />
        </mxCell>
        <mxCell id="VQB_SgRrG4Z1jtRtXzJK-103" value="" style="endArrow=none;html=1;rounded=0;dashed=1;dashPattern=1 2;exitX=0.5;exitY=1;exitDx=0;exitDy=0;entryX=0.5;entryY=0;entryDx=0;entryDy=0;" edge="1" parent="1" source="VQB_SgRrG4Z1jtRtXzJK-36" target="VQB_SgRrG4Z1jtRtXzJK-99">
          <mxGeometry relative="1" as="geometry">
            <mxPoint x="-260" y="430" as="sourcePoint" />
            <mxPoint x="-100" y="430" as="targetPoint" />
          </mxGeometry>
        </mxCell>
        <mxCell id="VQB_SgRrG4Z1jtRtXzJK-104" value="N" style="resizable=0;html=1;whiteSpace=wrap;align=right;verticalAlign=bottom;" connectable="0" vertex="1" parent="VQB_SgRrG4Z1jtRtXzJK-103">
          <mxGeometry x="1" relative="1" as="geometry" />
        </mxCell>
      </root>
    </mxGraphModel>
  </diagram>
</mxfile>
